<svg width="30" height="35" viewBox="0 0 30 35" fill="none" xmlns="http://www.w3.org/2000/svg">
<path d="M10.3213 7.91225C10.5476 7.40847 11.1394 7.18353 11.6432 7.40984L29.2559 15.3217C29.7597 15.5481 29.9846 16.1399 29.7583 16.6437L21.8464 34.2564C21.6201 34.7602 21.0282 34.9851 20.5244 34.7588L2.91176 26.8469C2.40798 26.6206 2.18304 26.0287 2.40935 25.5249L10.3213 7.91225Z" fill="#202020" fill-opacity="0.18"/>
<path fill-rule="evenodd" clip-rule="evenodd" d="M9.73587 2.64398L2.6435 18.4323L18.4318 25.5246L25.5242 9.73636L9.73587 2.64398ZM9.64322 0.409836C9.13943 0.183526 8.54757 0.408465 8.32126 0.912253L0.409348 18.5249C0.183038 19.0287 0.407977 19.6206 0.911765 19.8469L18.5244 27.7588C19.0282 27.9851 19.6201 27.7602 19.8464 27.2564L27.7583 9.64371C27.9846 9.13992 27.7597 8.54806 27.2559 8.32175L9.64322 0.409836Z" fill="#202020"/>
</svg>
