<svg width="301" height="121" viewBox="0 0 301 121" fill="none" xmlns="http://www.w3.org/2000/svg">
<path fill-rule="evenodd" clip-rule="evenodd" d="M25.7484 28.5387C26.179 37.4511 28.8305 48.3753 33.4385 60.954C41.5988 83.2295 41.6281 98.272 35.3094 107.704C28.9755 117.159 16.5596 120.549 0.983398 120.298L1.01565 118C16.4394 118.249 27.7645 114.562 33.5 106C39.2506 97.4157 39.6776 83.7995 31.5605 61.642C26.9186 48.9706 24.1951 37.8322 23.7507 28.6352C23.3068 19.4475 25.1332 12.0526 29.7662 7.05552C34.4125 2.04421 41.6867 -0.348335 51.6635 0.040904C58.7745 0.318334 67.3266 2.00904 77.4221 5.22932C77.4397 5.2184 77.4573 5.20751 77.4749 5.19665C83.2397 1.64393 92.1149 1.69036 102.287 5.88924C112.498 10.1038 124.183 18.5585 135.761 32.1495C177.526 81.1785 240.609 96.8606 287 66.5384C291.348 63.6966 295.777 60.6784 299.81 57.0273C299.945 56.9048 300.156 56.9242 300.266 57.0702V57.0702C300.363 57.1988 300.345 57.3803 300.224 57.4869C296.128 61.1098 291.877 64.3376 287.5 67.179C239.598 98.2762 176.544 83.1098 134.238 33.4464C122.816 20.0374 111.376 11.8047 101.524 7.73794C92.5888 4.04964 85.0944 3.83355 80.0543 6.09191C83.3348 7.19487 86.7709 8.45217 90.3659 9.8675C106.396 16.1784 118.224 25.4349 126.092 35.0067C133.943 44.5578 137.899 54.4858 138.062 62.1518C138.143 65.9881 137.273 69.3432 135.36 71.7689C133.423 74.2245 130.509 75.6081 126.782 75.6417C123.088 75.675 118.599 74.3877 113.374 71.5603C108.14 68.7281 102.112 64.3203 95.3201 58.0317C81.751 45.4677 74.4182 34.1595 71.88 25.0508C69.6505 17.0499 71.1122 10.6139 75.4521 6.70672C66.0741 3.80471 58.1546 2.29567 51.5855 2.03938C41.9374 1.66297 35.3366 3.98914 31.2328 8.41531C27.1159 12.8558 25.3173 19.6171 25.7484 28.5387ZM77.7327 7.43063C73.4122 10.5858 71.5489 16.4121 73.8066 24.5139C76.2058 33.1239 83.2481 44.1282 96.6789 56.5642C103.387 62.7756 109.28 67.071 114.326 69.8013C119.38 72.5363 123.528 73.6709 126.764 73.6418C129.966 73.6129 132.275 72.4496 133.79 70.5302C135.327 68.5809 136.137 65.7328 136.062 62.1942C135.912 55.1102 132.212 45.6007 124.547 36.2767C116.9 26.9736 105.353 17.9175 89.6332 11.7285C85.4397 10.0775 81.475 8.64764 77.7327 7.43063Z" fill="#FF1800"/>
</svg>
