<svg width="255" height="187" viewBox="0 0 264 194" fill="none" xmlns="http://www.w3.org/2000/svg">
<path fill-rule="evenodd" clip-rule="evenodd" d="M197.365 99.6154C222.332 84.8453 247.838 52.0966 263.542 0V8.78857C245 61.7886 223.917 86.2319 198.384 101.337C187.194 107.957 176.017 111.104 165.735 110.808C162.618 127.83 154.564 145.962 139.647 160.993C114.848 185.981 71.4145 201.251 0.49974 189.869C0.227157 189.825 0.0357195 189.568 0.0797892 189.295V189.295C0.123875 189.023 0.387024 188.838 0.65971 188.882C71.1517 200.191 114.017 183.98 138.227 159.584C152.762 144.938 160.637 127.283 163.721 110.705C162.954 110.648 162.192 110.572 161.436 110.476C149.993 109.026 139.966 103.088 132.685 92.8689C125.466 82.7373 123.211 73.8874 124.213 66.9886C125.219 60.0646 129.497 55.2248 135.035 53.2232C140.559 51.2266 147.247 52.0816 153.073 56.324C158.901 60.5686 163.821 68.1624 165.982 79.603C167.598 88.1589 167.787 98.2386 166.079 108.816C175.834 109.033 186.536 106.022 197.365 99.6154ZM164.068 108.724C165.778 98.3009 165.603 88.3733 164.017 79.9742C161.928 68.9148 157.223 61.8211 151.895 57.9407C146.564 54.0581 140.566 53.3506 135.714 55.1041C130.877 56.8524 127.093 61.0751 126.192 67.2761C125.288 73.5023 127.283 81.8399 134.314 91.7083C141.283 101.489 150.818 107.114 161.688 108.492C162.474 108.591 163.267 108.669 164.068 108.724Z" fill="#FF1800"/>
</svg>
