<svg width="60" height="22" viewBox="0 0 60 22" fill="none" xmlns="http://www.w3.org/2000/svg">
<path fill-rule="evenodd" clip-rule="evenodd" d="M0.196022 0.324104C5.09932 8.27883 14.1222 11.9916 21.1897 12.7421C22.5985 12.8917 23.9445 12.9253 25.1758 12.8474C26.5795 14.0684 28.7205 15.1765 31.774 16.0161C36.7893 17.3951 44.3646 18.0808 55.4751 17.315L53.2273 20.9218C52.9238 21.4089 53.5462 21.9401 53.9795 21.5638L59.3718 16.8813C59.6389 16.6493 59.5872 16.2207 59.2724 16.059L53.442 13.0631C52.9046 12.787 52.4294 13.5237 52.9025 13.8994L55.698 16.1193C55.7569 16.1661 55.8026 16.2237 55.8344 16.2873C44.547 17.0967 36.9669 16.4068 32.0391 15.0518C29.6135 14.3849 27.8544 13.5644 26.6119 12.698C27.8885 12.5087 28.992 12.1792 29.8477 11.7158C30.815 11.192 31.5297 10.4598 31.7413 9.50549C31.9534 8.54938 31.6295 7.51095 30.83 6.44488C30.0162 5.35993 29.0327 4.74435 28.0199 4.5319C27.0113 4.32032 26.011 4.51664 25.1758 4.98946C23.5097 5.93268 22.4614 8.00632 23.2728 10.2289C23.4762 10.786 23.7925 11.342 24.2354 11.8847C23.3174 11.9013 22.3312 11.8577 21.2953 11.7477C14.3644 11.0117 5.22718 7.8506 0.563168 0.105547C0.524007 0.0405161 0.453484 -3.08678e-05 0.377572 1.76324e-08C0.210923 6.78207e-05 0.108577 0.18224 0.196022 0.324104ZM29.3716 10.8365C28.4462 11.3375 27.1261 11.6785 25.5333 11.8177C24.8589 11.1647 24.4386 10.5063 24.2121 9.88591C23.586 8.17095 24.3814 6.58834 25.6685 5.85968C26.3099 5.49656 27.0635 5.35304 27.8146 5.5106C28.5616 5.66729 29.3437 6.12984 30.03 7.04489C30.7304 7.97882 30.8909 8.72163 30.7651 9.28896C30.6388 9.85806 30.1933 10.3915 29.3716 10.8365Z" fill="black"/>
</svg>
