<svg width="168" height="49" viewBox="0 0 168 49" fill="none" xmlns="http://www.w3.org/2000/svg">
<path d="M72.0796 32.1399C71.4396 32.1399 70.8129 32.0533 70.1996 31.8799C69.5996 31.6933 69.1329 31.4399 68.7996 31.1199C68.7196 30.9999 68.6596 30.8999 68.6196 30.8199C68.5796 30.7266 68.5596 30.6133 68.5596 30.4799C68.5596 30.1599 68.6396 29.8333 68.7996 29.4999C68.9596 29.1533 69.1396 28.9799 69.3396 28.9799C69.4329 28.9799 69.5662 29.0333 69.7396 29.1399C69.9129 29.2333 70.0262 29.2933 70.0796 29.3199C70.6796 29.6933 71.2996 29.8799 71.9396 29.8799C72.4596 29.8799 72.8996 29.7466 73.2596 29.4799C73.6196 29.2133 73.7996 28.7999 73.7996 28.2399C73.7996 27.6933 73.6329 27.2599 73.2996 26.9399C72.9796 26.6199 72.4929 26.2933 71.8396 25.9599C71.1596 25.5866 70.5996 25.2266 70.1596 24.8799C69.7329 24.5333 69.3929 24.1133 69.1396 23.6199C68.8996 23.1133 68.7796 22.5066 68.7796 21.7999C68.7796 20.9866 68.9596 20.2799 69.3196 19.6799C69.6796 19.0799 70.1729 18.6199 70.7996 18.2999C71.4262 17.9799 72.1462 17.8199 72.9596 17.8199C73.4129 17.8199 73.8796 17.8866 74.3596 18.0199C74.8396 18.1399 75.2262 18.2999 75.5196 18.4999C75.7062 18.6333 75.7996 18.8133 75.7996 19.0399C75.7996 19.3333 75.7262 19.6599 75.5796 20.0199C75.4329 20.3799 75.2662 20.5599 75.0796 20.5599C74.9996 20.5599 74.8462 20.5133 74.6196 20.4199C74.1129 20.2066 73.6129 20.0999 73.1196 20.0999C72.5462 20.0999 72.1129 20.2466 71.8196 20.5399C71.5262 20.8199 71.3796 21.1733 71.3796 21.5999C71.3796 21.9599 71.4529 22.2666 71.5996 22.5199C71.7596 22.7599 71.9529 22.9666 72.1796 23.1399C72.4196 23.2999 72.7596 23.4999 73.1996 23.7399C73.4129 23.8466 73.5396 23.9133 73.5796 23.9399C74.5262 24.4599 75.2262 25.0199 75.6796 25.6199C76.1329 26.2066 76.3596 27.0066 76.3596 28.0199C76.3596 28.7933 76.1929 29.4933 75.8596 30.1199C75.5396 30.7466 75.0529 31.2399 74.3996 31.5999C73.7596 31.9599 72.9862 32.1399 72.0796 32.1399Z" fill="#202020"/>
<path d="M80.39 32.1399C79.4967 32.1399 78.8034 31.8666 78.31 31.3199C77.83 30.7599 77.59 29.9933 77.59 29.0199C77.59 27.8866 77.9834 26.9866 78.77 26.3199C79.57 25.6533 80.81 25.3199 82.49 25.3199V24.7799C82.49 23.8733 82.0234 23.4199 81.09 23.4199C80.73 23.4199 80.4167 23.4666 80.15 23.5599C79.8834 23.6399 79.5967 23.7533 79.29 23.8999C79.1167 24.0066 78.99 24.0599 78.91 24.0599C78.7367 24.0599 78.5367 23.8799 78.31 23.5199C78.0967 23.1466 77.99 22.8599 77.99 22.6599C77.99 22.4466 78.1434 22.2466 78.45 22.0599C78.77 21.8599 79.1834 21.6999 79.69 21.5799C80.1967 21.4599 80.7167 21.3999 81.25 21.3999C82.53 21.3999 83.4767 21.6933 84.09 22.2799C84.7034 22.8666 85.01 23.6733 85.01 24.6999V28.6799C85.01 29.5866 85.05 30.2533 85.13 30.6799C85.21 31.0933 85.25 31.3466 85.25 31.4399C85.25 31.6266 85.03 31.7733 84.59 31.8799C84.15 31.9733 83.7567 32.0199 83.41 32.0199C83.21 32.0199 83.0634 31.9333 82.97 31.7599C82.8767 31.5866 82.7834 31.3133 82.69 30.9399C82.4634 31.2733 82.15 31.5599 81.75 31.7999C81.3634 32.0266 80.91 32.1399 80.39 32.1399ZM81.09 30.1999C81.37 30.1999 81.63 30.1266 81.87 29.9799C82.1234 29.8333 82.33 29.6333 82.49 29.3799V26.9599C80.7834 26.9599 79.93 27.5933 79.93 28.8599C79.93 29.2866 80.0234 29.6199 80.21 29.8599C80.41 30.0866 80.7034 30.1999 81.09 30.1999Z" fill="#202020"/>
<path d="M97.3189 21.3999C98.0523 21.3999 98.6189 21.6466 99.0189 22.1399C99.4323 22.6333 99.6389 23.3666 99.6389 24.3399V31.4599C99.6389 31.8466 99.2989 32.0399 98.6189 32.0399H98.1189C97.4389 32.0399 97.0989 31.8466 97.0989 31.4599V24.8399C97.0989 24.3999 97.0189 24.0666 96.8589 23.8399C96.7123 23.6133 96.4723 23.4999 96.1389 23.4999C95.8856 23.4999 95.6523 23.5799 95.4389 23.7399C95.2256 23.8866 95.0389 24.0733 94.8789 24.2999V31.4599C94.8789 31.8466 94.5389 32.0399 93.8589 32.0399H93.3389C92.6589 32.0399 92.3189 31.8466 92.3189 31.4599V24.8399C92.3189 24.3999 92.2389 24.0666 92.0789 23.8399C91.9323 23.6133 91.6923 23.4999 91.3589 23.4999C91.0656 23.4999 90.8123 23.5933 90.5989 23.7799C90.3856 23.9666 90.2189 24.1733 90.0989 24.3999V31.4599C90.0989 31.6599 90.0123 31.8066 89.8389 31.8999C89.6789 31.9933 89.4256 32.0399 89.0789 32.0399H88.5589C87.8923 32.0399 87.5589 31.8466 87.5589 31.4599V24.8599C87.5589 23.9399 87.5256 23.2799 87.4589 22.8799C87.3923 22.4799 87.3589 22.2466 87.3589 22.1799C87.3589 21.9666 87.5856 21.8133 88.0389 21.7199C88.5056 21.6133 88.9123 21.5599 89.2589 21.5599C89.4856 21.5599 89.6389 21.6399 89.7189 21.7999C89.7989 21.9466 89.8523 22.1333 89.8789 22.3599C89.9189 22.5866 89.9523 22.7666 89.9789 22.8999C90.2723 22.4599 90.6323 22.0999 91.0589 21.8199C91.4989 21.5399 91.9923 21.3999 92.5389 21.3999C93.0589 21.3999 93.4989 21.5199 93.8589 21.7599C94.2323 21.9999 94.4989 22.3599 94.6589 22.8399C94.9523 22.4133 95.3256 22.0666 95.7789 21.7999C96.2456 21.5333 96.7589 21.3999 97.3189 21.3999Z" fill="#202020"/>
<path d="M104.413 32.1399C103.52 32.1399 102.827 31.8666 102.333 31.3199C101.853 30.7599 101.613 29.9933 101.613 29.0199C101.613 27.8866 102.007 26.9866 102.793 26.3199C103.593 25.6533 104.833 25.3199 106.513 25.3199V24.7799C106.513 23.8733 106.047 23.4199 105.113 23.4199C104.753 23.4199 104.44 23.4666 104.173 23.5599C103.907 23.6399 103.62 23.7533 103.313 23.8999C103.14 24.0066 103.013 24.0599 102.933 24.0599C102.76 24.0599 102.56 23.8799 102.333 23.5199C102.12 23.1466 102.013 22.8599 102.013 22.6599C102.013 22.4466 102.167 22.2466 102.473 22.0599C102.793 21.8599 103.207 21.6999 103.713 21.5799C104.22 21.4599 104.74 21.3999 105.273 21.3999C106.553 21.3999 107.5 21.6933 108.113 22.2799C108.727 22.8666 109.033 23.6733 109.033 24.6999V28.6799C109.033 29.5866 109.073 30.2533 109.153 30.6799C109.233 31.0933 109.273 31.3466 109.273 31.4399C109.273 31.6266 109.053 31.7733 108.613 31.8799C108.173 31.9733 107.78 32.0199 107.433 32.0199C107.233 32.0199 107.087 31.9333 106.993 31.7599C106.9 31.5866 106.807 31.3133 106.713 30.9399C106.487 31.2733 106.173 31.5599 105.773 31.7999C105.387 32.0266 104.933 32.1399 104.413 32.1399ZM105.113 30.1999C105.393 30.1999 105.653 30.1266 105.893 29.9799C106.147 29.8333 106.353 29.6333 106.513 29.3799V26.9599C104.807 26.9599 103.953 27.5933 103.953 28.8599C103.953 29.2866 104.047 29.6199 104.233 29.8599C104.433 30.0866 104.727 30.1999 105.113 30.1999Z" fill="#202020"/>
<path d="M112.582 32.0399C111.916 32.0399 111.582 31.8466 111.582 31.4599V24.8599C111.582 23.9399 111.549 23.2799 111.482 22.8799C111.416 22.4799 111.382 22.2466 111.382 22.1799C111.382 21.9666 111.609 21.8133 112.062 21.7199C112.529 21.6133 112.936 21.5599 113.282 21.5599C113.509 21.5599 113.662 21.6399 113.742 21.7999C113.822 21.9466 113.876 22.1333 113.902 22.3599C113.942 22.5866 113.976 22.7666 114.002 22.8999C114.296 22.4599 114.662 22.0999 115.102 21.8199C115.556 21.5399 116.049 21.3999 116.582 21.3999C117.356 21.3999 117.942 21.6466 118.342 22.1399C118.742 22.6333 118.942 23.3533 118.942 24.2999V31.4599C118.942 31.8466 118.602 32.0399 117.922 32.0399H117.422C116.729 32.0399 116.382 31.8466 116.382 31.4599V24.7999C116.382 24.3599 116.302 24.0333 116.142 23.8199C115.996 23.6066 115.749 23.4999 115.402 23.4999C115.149 23.4999 114.909 23.5866 114.682 23.7599C114.456 23.9199 114.269 24.1333 114.122 24.3999V31.4599C114.122 31.6599 114.036 31.8066 113.862 31.8999C113.702 31.9933 113.449 32.0399 113.102 32.0399H112.582Z" fill="#202020"/>
<path d="M125.065 32.0399C124.385 32.0399 124.045 31.8466 124.045 31.4599V18.7399C124.045 18.4733 124.099 18.2866 124.205 18.1799C124.312 18.0599 124.485 17.9999 124.725 17.9999H130.125C130.459 17.9999 130.625 18.2866 130.625 18.8599V19.3799C130.625 19.9533 130.459 20.2399 130.125 20.2399H126.705V24.1199H129.885C130.219 24.1199 130.385 24.4066 130.385 24.9799V25.4999C130.385 26.0733 130.219 26.3599 129.885 26.3599H126.705V31.4599C126.705 31.6599 126.625 31.8066 126.465 31.8999C126.305 31.9933 126.045 32.0399 125.685 32.0399H125.065Z" fill="#202020"/>
<path d="M134.492 32.1399C133.598 32.1399 132.905 31.8666 132.412 31.3199C131.932 30.7599 131.692 29.9933 131.692 29.0199C131.692 27.8866 132.085 26.9866 132.872 26.3199C133.672 25.6533 134.912 25.3199 136.592 25.3199V24.7799C136.592 23.8733 136.125 23.4199 135.192 23.4199C134.832 23.4199 134.518 23.4666 134.252 23.5599C133.985 23.6399 133.698 23.7533 133.392 23.8999C133.218 24.0066 133.092 24.0599 133.012 24.0599C132.838 24.0599 132.638 23.8799 132.412 23.5199C132.198 23.1466 132.092 22.8599 132.092 22.6599C132.092 22.4466 132.245 22.2466 132.552 22.0599C132.872 21.8599 133.285 21.6999 133.792 21.5799C134.298 21.4599 134.818 21.3999 135.352 21.3999C136.632 21.3999 137.578 21.6933 138.192 22.2799C138.805 22.8666 139.112 23.6733 139.112 24.6999V28.6799C139.112 29.5866 139.152 30.2533 139.232 30.6799C139.312 31.0933 139.352 31.3466 139.352 31.4399C139.352 31.6266 139.132 31.7733 138.692 31.8799C138.252 31.9733 137.858 32.0199 137.512 32.0199C137.312 32.0199 137.165 31.9333 137.072 31.7599C136.978 31.5866 136.885 31.3133 136.792 30.9399C136.565 31.2733 136.252 31.5599 135.852 31.7999C135.465 32.0266 135.012 32.1399 134.492 32.1399ZM135.192 30.1999C135.472 30.1999 135.732 30.1266 135.972 29.9799C136.225 29.8333 136.432 29.6333 136.592 29.3799V26.9599C134.885 26.9599 134.032 27.5933 134.032 28.8599C134.032 29.2866 134.125 29.6199 134.312 29.8599C134.512 30.0866 134.805 30.1999 135.192 30.1999Z" fill="#202020"/>
<path d="M145.641 32.1399C144.134 32.1399 143.021 31.6999 142.301 30.8199C141.594 29.9266 141.241 28.5999 141.241 26.8399C141.241 23.2133 142.601 21.3999 145.321 21.3999C147.747 21.3999 148.961 23.1733 148.961 26.7199C148.961 26.8666 148.841 27.0799 148.601 27.3599C148.374 27.6399 148.194 27.7799 148.061 27.7799H143.861C143.901 28.6066 144.074 29.2066 144.381 29.5799C144.687 29.9399 145.134 30.1199 145.721 30.1199C146.067 30.1199 146.374 30.0733 146.641 29.9799C146.907 29.8733 147.154 29.7599 147.381 29.6399C147.607 29.5066 147.741 29.4399 147.781 29.4399C147.954 29.4399 148.147 29.6199 148.361 29.9799C148.587 30.3266 148.701 30.5933 148.701 30.7799C148.701 31.0333 148.534 31.2666 148.201 31.4799C147.881 31.6799 147.474 31.8399 146.981 31.9599C146.501 32.0799 146.054 32.1399 145.641 32.1399ZM146.581 26.1199C146.581 25.1466 146.474 24.4333 146.261 23.9799C146.061 23.5266 145.734 23.2999 145.281 23.2999C144.814 23.2999 144.461 23.5199 144.221 23.9599C143.981 24.3866 143.834 25.1066 143.781 26.1199H146.581Z" fill="#202020"/>
<path d="M154.023 36.2399C152.796 36.2399 151.863 36.0199 151.223 35.5799C150.596 35.1399 150.283 34.4799 150.283 33.5999C150.283 33.0533 150.416 32.5733 150.683 32.1599C150.963 31.7466 151.349 31.4199 151.843 31.1799V31.1199C151.589 30.9599 151.396 30.7533 151.263 30.4999C151.143 30.2333 151.083 29.9399 151.083 29.6199C151.083 28.8599 151.403 28.2466 152.043 27.7799C151.069 27.2466 150.583 26.2933 150.583 24.9199C150.583 23.7866 150.896 22.9199 151.523 22.3199C152.149 21.7066 153.009 21.3999 154.103 21.3999C154.529 21.3999 154.923 21.4466 155.283 21.5399H158.023C158.196 21.5399 158.316 21.6066 158.383 21.7399C158.463 21.8599 158.503 22.0533 158.503 22.3199V22.6199C158.503 22.8866 158.469 23.0799 158.403 23.1999C158.336 23.3199 158.223 23.3799 158.063 23.3799C157.703 23.3799 157.423 23.3599 157.223 23.3199L157.183 23.3799C157.449 23.8066 157.583 24.3333 157.583 24.9599C157.583 25.9733 157.296 26.7666 156.723 27.3399C156.149 27.9133 155.369 28.2133 154.383 28.2399C153.609 28.2799 153.223 28.5933 153.223 29.1799C153.223 29.5266 153.363 29.7666 153.643 29.8999C153.923 30.0199 154.363 30.1333 154.963 30.2399C155.096 30.2533 155.296 30.2866 155.563 30.3399C156.349 30.4999 156.976 30.7866 157.443 31.1999C157.909 31.6133 158.143 32.2266 158.143 33.0399C158.143 34.0533 157.783 34.8399 157.063 35.3999C156.343 35.9599 155.329 36.2399 154.023 36.2399ZM154.063 26.4999C154.476 26.4999 154.803 26.3799 155.043 26.1399C155.296 25.8999 155.423 25.4733 155.423 24.8599C155.423 24.2066 155.303 23.7599 155.063 23.5199C154.823 23.2666 154.489 23.1399 154.063 23.1399C153.649 23.1399 153.323 23.2666 153.083 23.5199C152.856 23.7599 152.743 24.2066 152.743 24.8599C152.743 25.9533 153.183 26.4999 154.063 26.4999ZM154.243 34.3999C154.816 34.3999 155.249 34.2933 155.543 34.0799C155.836 33.8799 155.983 33.5933 155.983 33.2199C155.983 32.8066 155.829 32.5266 155.523 32.3799C155.216 32.2333 154.729 32.1066 154.063 31.9999C153.689 31.9333 153.436 31.8866 153.303 31.8599C153.049 32.0066 152.849 32.1933 152.703 32.4199C152.556 32.6599 152.483 32.9266 152.483 33.2199C152.483 33.6066 152.636 33.8999 152.943 34.0999C153.249 34.2999 153.683 34.3999 154.243 34.3999Z" fill="#202020"/>
<path d="M161.197 32.0399C160.517 32.0399 160.177 31.8466 160.177 31.4599V17.4999C160.177 17.1266 160.517 16.9399 161.197 16.9399H161.737C162.403 16.9399 162.737 17.1266 162.737 17.4999V22.7399C163.03 22.3399 163.383 22.0199 163.797 21.7799C164.223 21.5266 164.697 21.3999 165.217 21.3999C165.95 21.3999 166.523 21.6466 166.937 22.1399C167.363 22.6199 167.577 23.3399 167.577 24.2999V31.4599C167.577 31.8466 167.237 32.0399 166.557 32.0399H166.057C165.697 32.0399 165.437 31.9933 165.277 31.8999C165.117 31.8066 165.037 31.6599 165.037 31.4599V24.7999C165.037 23.9333 164.697 23.4999 164.017 23.4999C163.723 23.4999 163.463 23.5933 163.237 23.7799C163.01 23.9666 162.843 24.1733 162.737 24.3999V31.4599C162.737 31.6599 162.65 31.8066 162.477 31.8999C162.317 31.9933 162.063 32.0399 161.717 32.0399H161.197Z" fill="#202020"/>
<path fill-rule="evenodd" clip-rule="evenodd" d="M24.5 49C38.0312 49 49 38.0308 49 24.5C49 10.9692 38.0312 0 24.5 0C10.9688 0 0 10.9692 0 24.5C0 38.0308 10.9688 49 24.5 49ZM17.5293 31.8618C18.2354 32.061 18.9551 32.1606 19.6914 32.1606C20.7344 32.1606 21.624 31.9541 22.3594 31.54C23.1113 31.126 23.6709 30.5586 24.0381 29.8379C24.4219 29.1172 24.6133 28.312 24.6133 27.4229C24.6133 26.2573 24.3525 25.3374 23.832 24.6631C23.3105 23.9727 22.5049 23.3291 21.417 22.731C21.3701 22.7002 21.2246 22.6235 20.9795 22.501C20.4736 22.2251 20.083 21.9946 19.8066 21.811C19.5459 21.6113 19.3232 21.374 19.1396 21.0977C18.9707 20.8066 18.8867 20.4541 18.8867 20.04C18.8867 19.7744 18.9365 19.5332 19.0352 19.3169C19.1191 19.1338 19.2383 18.9688 19.3926 18.8208C19.7295 18.4834 20.2285 18.3149 20.8877 18.3149C21.4551 18.3149 22.0303 18.4375 22.6123 18.6831C22.873 18.79 23.0498 18.8438 23.1416 18.8438C23.3564 18.8438 23.5479 18.6367 23.7168 18.2227C23.7939 18.0337 23.8535 17.8525 23.8945 17.6792C23.9443 17.4736 23.9697 17.2788 23.9697 17.0957C23.9697 16.8354 23.8623 16.6284 23.6475 16.4751C23.3105 16.2446 22.8652 16.061 22.3135 15.9229C21.9062 15.8096 21.5068 15.7383 21.1162 15.7085C20.9775 15.6982 20.8398 15.6929 20.7031 15.6929C19.7686 15.6929 18.9404 15.877 18.2197 16.2446C17.499 16.6128 16.9316 17.1421 16.5176 17.832C16.1035 18.522 15.8965 19.3345 15.8965 20.27C15.8965 20.4502 15.9033 20.6245 15.917 20.7935C15.9307 20.9678 15.9521 21.1362 15.9805 21.2988C16.0146 21.4932 16.0586 21.6792 16.1133 21.8564C16.1689 22.0337 16.2344 22.2026 16.3105 22.3628C16.6016 22.9302 16.9932 23.4131 17.4834 23.812C17.9893 24.2104 18.6338 24.6245 19.416 25.0537C19.7783 25.2388 20.0957 25.4219 20.3691 25.6035C20.5332 25.7124 20.6816 25.8203 20.8135 25.9277C20.917 26.0122 21.0107 26.0967 21.0947 26.1807C21.4775 26.5488 21.6699 27.0474 21.6699 27.6758C21.6699 28.3198 21.4629 28.7954 21.0488 29.1021C20.6348 29.4087 20.1289 29.562 19.5303 29.562C19.0586 29.562 18.5957 29.4736 18.1416 29.2969C17.8887 29.1982 17.6387 29.0718 17.3916 28.918L17.3193 28.8809L17.001 28.7109C16.9297 28.667 16.8652 28.6313 16.8057 28.6035L16.7324 28.5713C16.6572 28.5415 16.5938 28.5269 16.541 28.5269C16.3105 28.5269 16.1035 28.7261 15.9199 29.125C15.8682 29.2324 15.8232 29.3394 15.7861 29.4458C15.7549 29.5371 15.7285 29.6279 15.707 29.7183C15.665 29.8979 15.6436 30.0757 15.6436 30.252C15.6436 30.4053 15.667 30.5356 15.7129 30.6431C15.7344 30.6865 15.7607 30.7354 15.793 30.7891C15.8291 30.8486 15.8711 30.915 15.9199 30.9878C16.0537 31.1167 16.207 31.2363 16.3789 31.3462C16.6973 31.5503 17.0811 31.7222 17.5293 31.8618ZM26.5117 31.3789C26.5117 31.8237 26.9023 32.0459 27.6846 32.0459H28.3975C28.8115 32.0459 29.1104 31.9922 29.2949 31.8848C29.4785 31.7773 29.5703 31.6089 29.5703 31.3789V25.5137H33.2275C33.6113 25.5137 33.8027 25.1841 33.8027 24.5249V23.9268C33.8027 23.2676 33.6113 22.938 33.2275 22.938H29.5703V18.4761H33.5039C33.8867 18.4761 34.0781 18.146 34.0781 17.4868V16.8887C34.0781 16.2295 33.8867 15.8999 33.5039 15.8999H27.2939C27.0176 15.8999 26.8184 15.9688 26.6953 16.1069C26.6455 16.1572 26.6055 16.2227 26.5762 16.3037C26.543 16.3945 26.5225 16.5049 26.5146 16.6348L26.5117 16.751V31.3789Z" fill="#202020"/>
</svg>
