<svg width="17" height="14" viewBox="0 0 17 14" fill="none" xmlns="http://www.w3.org/2000/svg">
<path d="M17 1.64355C17 0.735841 16.2565 0 15.3394 0H1.66056C0.743456 0 0 0.735841 0 1.64355V12.3564C0 13.2642 0.743456 14 1.66056 14H15.3394C16.2565 14 17 13.2642 17 12.3564V1.64355ZM1.66946 1.31343H15.3525C15.5356 1.31343 15.683 1.45799 15.683 1.63926V1.65352L8.74546 8.52077C8.66084 8.60452 8.56241 8.61703 8.51104 8.61703C8.45967 8.61703 8.3609 8.60452 8.27627 8.52077L1.33708 1.65259V1.63926C1.33708 1.45799 1.48633 1.31343 1.66946 1.31343ZM15.3525 12.6866H1.66946C1.48633 12.6866 1.33708 12.5365 1.33708 12.3552V3.51205L7.3371 9.45052C7.65074 9.76093 8.06781 9.93187 8.51135 9.93187C8.95495 9.93184 9.37118 9.76087 9.6848 9.45046L15.683 3.51297V12.3552C15.683 12.5365 15.5356 12.6866 15.3525 12.6866Z" fill="#202020"/>
</svg>
